Coordinates
version=1
nRows=4
nColumns=107
inDegrees=yes

Units are S.I. units (second, meters, Newtons, ...)
If the header above contains a line with 'inDegrees', this indicates whether rotational values are in degrees (yes) or radians (no).

endheader
time	sternoclavicular_r2	sternoclavicular_r3	unrotscap_r3	unrotscap_r2	acromioclavicular_r2	acromioclavicular_r3	acromioclavicular_r1	unrothum_r1	unrothum_r3	unrothum_r2	elv_angle	shoulder_elv	shoulder1_r2	shoulder_rot	elbow_flexion	pro_sup	deviation	flexion	proximal_distal_r1	proximal_distal_r3	cmc_flexion	cmc_abduction	mp_flexion	ip_flexion	mcp2_flexion	mcp2_abduction	pm2_flexion	md2_flexion	mcp3_flexion	mcp3_abduction	pm3_flexion	md3_flexion	mcp4_flexion	mcp4_abduction	pm4_flexion	md4_flexion	mcp5_flexion	mcp5_abduction	pm5_flexion	md5_flexion	bicpt_tx	bicpt_ty	bicpt_tz	bicpt2_tx	bicpt2_ty	bicpt2_tz	ptpt_tx	ptpt_ty	ptpt_tz	FCUpt_tx	FCUpt_ty	FCUpt_tz	EDCpt_tx	EDCpt_ty	EDCpt_tz	APLpt_tx	APLpt_ty	APLpt_tz	FPLpt_tx	FPLpt_ty	FPLpt_tz	FPLpt2_tx	FPLpt2_ty	FPLpt2_tz	PEC1pt2_tx	PEC1pt2_ty	PEC1pt2_tz	PEC1pt3_tx	PEC1pt3_ty	PEC1pt3_tz	PEC2pt2_tx	PEC2pt2_ty	PEC2pt2_tz	PEC2pt3_tx	PEC2pt3_ty	PEC2pt3_tz	PEC3pt2_tx	PEC3pt2_ty	PEC3pt2_tz	PEC3pt3_tx	PEC3pt3_ty	PEC3pt3_tz	DELT2pt2a_tx	DELT2pt2a_ty	DELT2pt2a_tz	DELT2pt2_tx	DELT2pt2_ty	DELT2pt2_tz	LAT1pt2_tx	LAT1pt2_ty	LAT1pt2_tz	LAT1pt3_tx	LAT1pt3_ty	LAT1pt3_tz	LAT2pt2_tx	LAT2pt2_ty	LAT2pt2_tz	LAT2pt3_tx	LAT2pt3_ty	LAT2pt3_tz	LAT3pt2_tx	LAT3pt2_ty	LAT3pt2_tz	LAT3pt3_tx	LAT3pt3_ty	LAT3pt3_tz
      1.66666667	     -0.32890030	      0.13930664	     -0.13930664	      0.32890030	     -0.06659562	      0.53820237	      0.24191826	     -0.24191826	     -0.53820237	      0.06659562	     97.60867370	     77.87006862	     -1.70359273	    -16.75324936	     30.39294935	     44.52954205	      0.22561609	     -0.32210660	      0.26452865	     -0.16105330	     24.31113619	    -11.41593839	    -26.60789559	     -3.69091654	     12.40132794	      3.97330800	     33.35516427	    -12.28343591	     19.62406598	     -2.71016069	     15.31657158	     18.28234226	     17.24432883	     -7.16751014	      5.29263304	     25.81645245	      9.21209289	    -12.05541019	      6.07779042	      5.05649680	      0.00090530	     -0.03108350	     -0.00486110	      0.01655940	     -0.01845639	     -0.00697211	      0.00425977	     -0.06702752	     -0.00363709	      0.00823943	     -0.18339793	     -0.00041085	     -0.00534353	      0.00156767	      0.00010834	      0.00024269	      0.00009708	      0.00048539	      0.00031065	      0.00093194	      0.00052422	      0.00000171	     -0.00027947	     -0.00033537	      0.00255241	      0.00895507	      0.00622961	     -0.00834941	      0.02015971	     -0.01912144	      0.00255241	      0.00895507	      0.00622961	      0.00056240	      0.01868883	     -0.00982029	      0.00401188	      0.00497980	      0.01612181	      0.00000000	      0.00811203	      0.00000000	     -0.00731114	     -0.03378699	     -0.00669054	      0.01183221	     -0.00033438	     -0.00225644	     -0.00090848	      0.01522794	     -0.00622961	      0.00250915	      0.02197668	     -0.01816970	     -0.00609983	      0.01319466	     -0.00558069	     -0.01271879	      0.02786020	     -0.03119131	     -0.02388017	      0.01475206	     -0.00748419	     -0.01583359	      0.03218632	     -0.03897833
      1.70000000	     -0.32890645	      0.13930925	     -0.13930925	      0.32890645	     -0.06659687	      0.53821244	      0.24192279	     -0.24192279	     -0.53821244	      0.06659687	     97.61189128	     77.87152514	     -1.70364889	    -16.73337632	     30.38420840	     44.58784714	      0.22610802	     -0.32549212	      0.26501517	     -0.16274606	     23.40738170	    -11.97085848	    -27.33758917	     -3.66753161	     12.54675349	      3.93164339	     33.43550576	    -12.24834030	     19.67732820	     -2.81292920	     15.33979938	     18.16285644	     17.40475920	     -7.33288201	      5.35027760	     25.66757298	      9.39568420	    -12.38735445	      6.18111732	      5.12478265	      0.00090502	     -0.03108249	     -0.00486094	      0.01655893	     -0.01845402	     -0.00696553	      0.00425546	     -0.06703030	     -0.00364179	      0.00824538	     -0.18339664	     -0.00041107	     -0.00535053	      0.00157012	      0.00010779	      0.00024430	      0.00009772	      0.00048860	      0.00031270	      0.00093811	      0.00052769	      0.00000371	     -0.00028086	     -0.00033703	      0.00255246	      0.00895523	      0.00622973	     -0.00834957	      0.02016009	     -0.01912180	      0.00255246	      0.00895523	      0.00622973	      0.00056241	      0.01868918	     -0.00982047	      0.00401193	      0.00497989	      0.01612194	      0.00000000	      0.00811233	      0.00000000	     -0.00731128	     -0.03378762	     -0.00669079	      0.01181995	     -0.00033379	     -0.00225050	     -0.00090850	      0.01522822	     -0.00622973	      0.00250920	      0.02197709	     -0.01817004	     -0.00609994	      0.01319491	     -0.00558080	     -0.01271903	      0.02786072	     -0.03119190	     -0.02388062	      0.01475234	     -0.00748433	     -0.01583389	      0.03218692	     -0.03897906
      1.73333333	     -0.32895567	      0.13933009	     -0.13933009	      0.32895567	     -0.06660683	      0.53829298	      0.24195899	     -0.24195899	     -0.53829298	      0.06660683	     97.59208996	     77.88317777	     -1.70330329	    -16.74012398	     30.37117044	     44.58905905	      0.22612602	     -0.32551355	      0.26503214	     -0.16275677	     23.40352643	    -11.97221486	    -27.34010590	     -3.66772804	     12.54727554	      3.93119395	     33.43570459	    -12.24818068	     19.67753663	     -2.81327324	     15.33989197	     18.16257217	     17.40462283	     -7.33314418	      5.35021783	     25.66717504	      9.39570731	    -12.38693986	      6.18138447	      5.12488141	      0.00090458	     -0.03108100	     -0.00486070	      0.01655889	     -0.01845048	     -0.00696538	      0.00425537	     -0.06703036	     -0.00364189	      0.00824551	     -0.18339661	     -0.00041107	     -0.00535067	      0.00157017	      0.00010777	      0.00024431	      0.00009772	      0.00048862	      0.00031272	      0.00093815	      0.00052771	      0.00000373	     -0.00028080	     -0.00033696	      0.00255284	      0.00895657	      0.00623066	     -0.00835081	      0.02016311	     -0.01912466	      0.00255284	      0.00895657	      0.00623066	      0.00056249	      0.01869198	     -0.00982194	      0.00401237	      0.00498064	      0.01612297	      0.00000000	      0.00811478	      0.00000000	     -0.00731237	     -0.03379267	     -0.00669282	      0.01182406	     -0.00033399	     -0.00225259	     -0.00090864	      0.01523050	     -0.00623066	      0.00250957	      0.02198038	     -0.01817276	     -0.00610085	      0.01319688	     -0.00558163	     -0.01272093	      0.02786489	     -0.03119657	     -0.02388419	      0.01475455	     -0.00748545	     -0.01583626	      0.03219174	     -0.03898489
      1.76666667	     -0.32883845	      0.13928045	     -0.13928045	      0.32883845	     -0.06658310	      0.53810118	      0.24187278	     -0.24187278	     -0.53810118	      0.06658310	     97.67376250	     77.85542699	     -1.70472875	    -16.91706368	     30.30826733	     45.89385652	      0.23453489	     -0.31186310	      0.27327390	     -0.15593155	     23.19550628	    -13.85800662	    -28.03935865	     -5.76772030	     12.12706092	      3.67907062	     34.25747774	    -12.82259074	     20.37550575	     -3.11501717	     14.31147255	     17.74261138	     17.88456271	     -7.64807759	      5.21719204	     26.83634894	     10.01782885	    -12.49588633	      7.31016229	      5.11359320	      0.00090250	     -0.03107379	     -0.00485954	      0.01654569	     -0.01843339	     -0.00681650	      0.00415896	     -0.06709270	     -0.00374700	      0.00837898	     -0.18336753	     -0.00041518	     -0.00550725	      0.00162536	      0.00009470	      0.00023764	      0.00009506	      0.00047528	      0.00030418	      0.00091253	      0.00051330	      0.00000420	     -0.00028099	     -0.00033718	      0.00255193	      0.00895338	      0.00622844	     -0.00834784	      0.02015592	     -0.01911785	      0.00255193	      0.00895338	      0.00622844	      0.00056229	      0.01868532	     -0.00981844	      0.00401133	      0.00497886	      0.01612051	      0.00000000	      0.00810895	      0.00000000	     -0.00730977	     -0.03378063	     -0.00668799	      0.01193367	     -0.00033919	     -0.00230482	     -0.00090831	      0.01522507	     -0.00622844	      0.00250868	      0.02197255	     -0.01816628	     -0.00609868	      0.01319218	     -0.00557964	     -0.01271640	      0.02785497	     -0.03118545	     -0.02387568	      0.01474929	     -0.00748278	     -0.01583062	      0.03218027	     -0.03897100
